<svg width="60" height="64" viewBox="0 0 60 64" fill="none" xmlns="http://www.w3.org/2000/svg">
<path fill-rule="evenodd" clip-rule="evenodd" d="M29.7615 0C13.3247 0 0 14.2373 0 31.8C0 49.3627 13.3247 63.6 29.7615 63.6C46.1984 63.6 59.523 49.3627 59.523 31.8C59.523 14.2373 46.1984 0 29.7615 0ZM18.4833 13.78H42.0318C44.0176 13.78 45.6343 15.4866 45.6343 17.6013V50.88L41.856 47.3555L39.7297 45.2779L37.4802 43.0704L38.4116 46.5022H18.4833C16.4975 46.5022 14.8808 44.7956 14.8808 42.6809V17.6013C14.8808 15.4866 16.4975 13.78 18.4833 13.78Z" fill="black"/>
<path fill-rule="evenodd" clip-rule="evenodd" d="M35.2484 38.0063C35.2484 38.0063 34.6158 37.2086 34.0886 36.5037C36.3907 35.8174 37.2694 34.2963 37.2694 34.2963C36.5489 34.7971 35.8635 35.1496 35.2484 35.3907C34.3698 35.7803 33.5262 36.04 32.7003 36.1884C31.0132 36.5223 29.4668 36.4295 28.1487 36.1698C27.1471 35.9658 26.286 35.669 25.5654 35.3722C25.1613 35.2052 24.7219 35.0012 24.2826 34.7415C24.2562 34.7229 24.2299 34.709 24.2035 34.6951L24.2035 34.6951C24.1771 34.6812 24.1508 34.6673 24.1244 34.6487C24.0893 34.6302 24.0717 34.6116 24.0541 34.5931C23.7378 34.4076 23.5621 34.2777 23.5621 34.2777C23.5621 34.2777 24.4056 35.7617 26.6374 36.4666C26.1102 37.1715 25.46 38.0063 25.46 38.0063C21.5763 37.8764 20.1001 35.1867 20.1001 35.1867C20.1001 29.2136 22.6307 24.372 22.6307 24.372C25.1613 22.3686 27.5688 22.4243 27.5688 22.4243L27.7446 22.6469C24.5813 23.6115 23.1227 25.0769 23.1227 25.0769C23.1227 25.0769 23.5094 24.8543 24.1596 24.539C26.0399 23.6671 27.5337 23.426 28.1487 23.3703L28.1881 23.3633C28.2768 23.3474 28.3554 23.3332 28.4475 23.3332C29.5195 23.1848 30.732 23.1477 31.9973 23.2961C33.6668 23.5002 35.4593 24.0196 37.287 25.0769C37.287 25.0769 35.8986 23.6857 32.9112 22.7211L33.1572 22.4243C33.1572 22.4243 35.5648 22.3686 38.0953 24.372C38.0953 24.372 40.6259 29.2136 40.6259 35.1867C40.6259 35.1867 39.1322 37.8764 35.2484 38.0063ZM27.5717 29.68C26.5779 29.68 25.7933 30.6349 25.7933 31.8C25.7933 32.965 26.5953 33.92 27.5717 33.92C28.5655 33.92 29.3501 32.965 29.3501 31.8C29.3675 30.6349 28.5655 29.68 27.5717 29.68ZM32.1571 31.8C32.1571 30.6349 32.9417 29.68 33.9355 29.68C34.9293 29.68 35.7138 30.6349 35.7138 31.8C35.7138 32.965 34.9293 33.92 33.9355 33.92C32.9591 33.92 32.1571 32.965 32.1571 31.8Z" fill="black"/>
</svg>
