<svg width="60" height="64" viewBox="0 0 60 64" fill="none" xmlns="http://www.w3.org/2000/svg">
<path d="M30.203 0.238403C13.7988 0.238403 0.496582 14.6914 0.496582 32.5214C0.496582 46.7852 9.00838 58.8864 20.8117 63.1552C22.2963 63.454 22.8413 62.4549 22.8413 61.6022C22.8413 60.8324 22.8138 58.2893 22.801 55.5917C14.5366 57.5446 12.7928 51.7826 12.7928 51.7826C11.4414 48.0511 9.4944 47.0589 9.4944 47.0589C6.79914 45.0552 9.69757 45.0963 9.69757 45.0963C12.6806 45.3236 14.2513 48.4232 14.2513 48.4232C16.9008 53.3586 21.2008 51.9318 22.8959 51.1069C23.1626 49.0209 23.9324 47.5956 24.782 46.79C18.1838 45.9736 11.2476 43.2055 11.2476 30.8353C11.2476 27.3107 12.4081 24.4308 14.3084 22.1699C14 21.3563 12.9831 18.0733 14.5962 13.6264C14.5962 13.6264 17.0907 12.7588 22.7675 16.9356C25.1372 16.2203 27.6784 15.8616 30.203 15.8493C32.7276 15.8616 35.2708 16.2203 37.6449 16.9356C43.3148 12.7588 45.8059 13.6264 45.8059 13.6264C47.4229 18.0733 46.4056 21.3563 46.0971 22.1699C48.0019 24.4308 49.1545 27.3107 49.1545 30.8353C49.1545 43.2349 42.205 45.9651 35.5901 46.7643C36.6556 47.7661 37.605 49.7308 37.605 52.7428C37.605 57.0618 37.5706 60.5383 37.5706 61.6022C37.5706 62.4613 38.1053 63.4679 39.6111 63.1509C51.408 58.8773 59.9089 46.7803 59.9089 32.5214C59.9089 14.6914 46.6087 0.238403 30.203 0.238403Z" fill="black"/>
<path d="M11.7477 46.59C11.6823 46.751 11.4501 46.7985 11.2386 46.6884C11.0231 46.5831 10.9021 46.3644 10.972 46.2035C11.0359 46.0383 11.2686 45.9929 11.4836 46.1025C11.6995 46.2083 11.8225 46.4291 11.7477 46.59Z" fill="black"/>
<path d="M12.9509 48.0484C12.8093 48.1912 12.5323 48.1249 12.3444 47.8993C12.1501 47.6742 12.1137 47.3732 12.2573 47.2283C12.4034 47.0856 12.672 47.1524 12.8668 47.3775C13.0611 47.6052 13.099 47.9041 12.9509 48.0484Z" fill="black"/>
<path d="M14.1224 49.9078C13.9404 50.0451 13.6428 49.9163 13.4588 49.6292C13.2768 49.3421 13.2768 48.9979 13.4627 48.8599C13.6472 48.722 13.9404 48.846 14.1268 49.131C14.3083 49.4223 14.3083 49.7672 14.1224 49.9078Z" fill="black"/>
<path d="M15.7272 51.704C15.5644 51.8991 15.2176 51.8467 14.9638 51.5805C14.704 51.3202 14.6317 50.9507 14.795 50.7556C14.9598 50.56 15.3086 50.615 15.5644 50.8791C15.8222 51.1389 15.9009 51.511 15.7272 51.704Z" fill="black"/>
<path d="M17.9409 52.747C17.869 52.9999 17.535 53.1149 17.1985 53.0074C16.8626 52.8967 16.6427 52.6006 16.7106 52.345C16.7804 52.0906 17.1159 51.9708 17.4548 52.0857C17.7903 52.1959 18.0107 52.4899 17.9409 52.747Z" fill="black"/>
<path d="M20.3718 52.9405C20.3801 53.2068 20.0948 53.4276 19.7416 53.4318C19.3864 53.4409 19.0992 53.2255 19.0952 52.9635C19.0952 52.6946 19.3741 52.476 19.7293 52.4696C20.0825 52.4621 20.3718 52.6759 20.3718 52.9405Z" fill="black"/>
<path d="M22.6342 52.522C22.6765 52.7818 22.4311 53.0485 22.0803 53.1191C21.7355 53.1881 21.4162 53.0277 21.3724 52.77C21.3297 52.5038 21.5796 52.237 21.9239 52.1681C22.2751 52.1018 22.5895 52.2579 22.6342 52.522Z" fill="black"/>
</svg>
