<svg width="61" height="65" viewBox="0 0 61 65" fill="none" xmlns="http://www.w3.org/2000/svg">
<path fill-rule="evenodd" clip-rule="evenodd" d="M30.6819 0.449158C14.2451 0.449158 0.92041 14.6865 0.92041 32.2492C0.92041 49.8118 14.2451 64.0492 30.6819 64.0492C47.1188 64.0492 60.4435 49.8118 60.4435 32.2492C60.4435 14.6865 47.1188 0.449158 30.6819 0.449158ZM24.1385 15.3916C25.8316 15.3093 26.3726 15.2892 30.6834 15.2892H30.6785C34.9906 15.2892 35.5296 15.3093 37.2228 15.3916C38.9126 15.4743 40.0667 15.7602 41.0786 16.1796C42.1235 16.6124 43.0065 17.1919 43.8894 18.1353C44.7723 19.078 45.3147 20.0242 45.7214 21.1397C46.1116 22.2181 46.3795 23.4505 46.4588 25.2561C46.5349 27.0652 46.5547 27.6432 46.5547 32.2493C46.5547 36.8554 46.5349 37.4321 46.4588 39.2412C46.3795 41.046 46.1116 42.2788 45.7214 43.3575C45.3147 44.4727 44.7723 45.4189 43.8894 46.3616C43.0075 47.305 42.1232 47.8859 41.0796 48.3191C40.0696 48.7385 38.9149 49.0244 37.2251 49.107C35.532 49.1894 34.9926 49.2095 30.6814 49.2095C26.3709 49.2095 25.8303 49.1894 24.1371 49.107C22.4477 49.0244 21.2939 48.7385 20.284 48.3191C19.2407 47.8859 18.3551 47.305 17.4731 46.3616C16.5905 45.4189 16.0482 44.4727 15.6425 43.3572C15.2503 42.2788 14.9827 41.0464 14.905 39.2408C14.8283 37.4317 14.8091 36.8554 14.8091 32.2493C14.8091 27.6432 14.829 27.0648 14.9047 25.2557C14.9807 23.4509 15.2486 22.2181 15.6421 21.1394C16.0489 20.0242 16.5912 19.078 17.4741 18.1353C18.3564 17.1922 19.242 16.6128 20.286 16.1796C21.2952 15.7602 22.4487 15.4743 24.1385 15.3916Z" fill="black"/>
<path fill-rule="evenodd" clip-rule="evenodd" d="M29.2595 18.3455C29.536 18.3451 29.8334 18.3452 30.1544 18.3454L30.6834 18.3455C34.9215 18.3455 35.4238 18.3618 37.0974 18.4431C38.6451 18.5187 39.485 18.795 40.0445 19.0271C40.7853 19.3345 41.3134 19.702 41.8686 20.2956C42.4241 20.8892 42.7681 21.4546 43.0564 22.246C43.2737 22.8432 43.5326 23.7407 43.603 25.3943C43.6791 27.1822 43.6956 27.7192 43.6956 32.2455C43.6956 36.7717 43.6791 37.3088 43.603 39.0967C43.5323 40.7503 43.2737 41.6478 43.0564 42.2449C42.7687 43.0364 42.4241 43.6 41.8686 44.1932C41.313 44.7868 40.7856 45.1543 40.0445 45.4617C39.4857 45.6949 38.6451 45.9705 37.0974 46.0461C35.4242 46.1274 34.9215 46.145 30.6834 46.145C26.445 46.145 25.9427 46.1274 24.2694 46.0461C22.7218 45.9698 21.8819 45.6935 21.322 45.4613C20.5813 45.1539 20.0522 44.7865 19.4966 44.1929C18.9411 43.5993 18.5972 43.0353 18.3088 42.2435C18.0915 41.6464 17.8326 40.7489 17.7622 39.0953C17.6861 37.3074 17.6709 36.7703 17.6709 32.2412C17.6709 27.7122 17.6861 27.1779 17.7622 25.39C17.8329 23.7364 18.0915 22.8389 18.3088 22.2411C18.5965 21.4496 18.9411 20.8843 19.4966 20.2907C20.0522 19.6971 20.5813 19.3296 21.322 19.0215C21.8815 18.7883 22.7218 18.5127 24.2694 18.4367C25.7337 18.366 26.3012 18.3448 29.2595 18.3413V18.3455ZM39.1563 21.1616C38.1047 21.1616 37.2515 22.0722 37.2515 23.1962C37.2515 24.3198 38.1047 25.2314 39.1563 25.2314C40.2079 25.2314 41.0611 24.3198 41.0611 23.1962C41.0611 22.0725 40.2079 21.1609 39.1563 21.1609V21.1616ZM22.532 32.2494C22.532 27.4394 26.1818 23.5396 30.6834 23.5396H30.6831C35.1847 23.5396 38.8335 27.4394 38.8335 32.2494C38.8335 37.0593 35.1851 40.9574 30.6834 40.9574C26.1818 40.9574 22.532 37.0593 22.532 32.2494Z" fill="black"/>
<path d="M30.6836 26.5959C33.6055 26.5959 35.9746 29.1269 35.9746 32.2493C35.9746 35.3714 33.6055 37.9027 30.6836 37.9027C27.7613 37.9027 25.3926 35.3714 25.3926 32.2493C25.3926 29.1269 27.7613 26.5959 30.6836 26.5959Z" fill="black"/>
</svg>
