<svg width="60" height="64" viewBox="0 0 60 64" fill="none" xmlns="http://www.w3.org/2000/svg">
<path d="M30.1737 0.200012C13.724 0.200012 0.387695 14.4263 0.387695 31.9739C0.387695 45.4418 8.23256 56.9484 19.3134 61.5771C19.0438 59.0666 18.8231 55.1962 19.4115 52.4503C19.9508 49.966 22.8927 36.6549 22.8927 36.6549C22.8927 36.6549 22.0101 34.7459 22.0101 31.9477C22.0101 27.5281 24.4126 24.2331 27.4035 24.2331C29.953 24.2331 31.1788 26.2729 31.1788 28.7049C31.1788 31.4247 29.5608 35.5043 28.7028 39.2962C27.9918 42.4605 30.1982 45.0495 33.1155 45.0495C38.4108 45.0495 42.4803 39.087 42.4803 30.5094C42.4803 22.8994 37.3566 17.5906 30.0266 17.5906C21.5443 17.5906 16.5677 24.3638 16.5677 31.3724C16.5677 34.0921 17.5483 37.0211 18.7741 38.6163C19.0193 38.9301 19.0438 39.2178 18.9702 39.5316C18.7496 40.5253 18.2348 42.6959 18.1367 43.1405C18.0141 43.7158 17.6954 43.8466 17.1316 43.5589C13.4053 41.7021 11.0763 35.9227 11.0763 31.2416C11.0763 21.2257 17.8916 12.0204 30.762 12.0204C41.0829 12.0204 49.1239 19.8658 49.1239 30.3786C49.1239 41.336 42.6519 50.149 33.6793 50.149C30.664 50.149 27.8202 48.4753 26.8641 46.4878C26.8641 46.4878 25.3687 52.5549 25.001 54.0456C24.3391 56.8176 22.5249 60.2696 21.2992 62.3878C24.0939 63.3031 27.0357 63.8 30.1246 63.8C46.5743 63.8 59.9106 49.5737 59.9106 32.0262C59.9596 14.4263 46.6234 0.200012 30.1737 0.200012Z" fill="black"/>
</svg>
