<svg width="60" height="64" viewBox="0 0 60 64" fill="none" xmlns="http://www.w3.org/2000/svg">
<path fill-rule="evenodd" clip-rule="evenodd" d="M29.7615 0C13.3247 0 0 14.2373 0 31.8C0 49.3627 13.3247 63.6 29.7615 63.6C46.1984 63.6 59.523 49.3627 59.523 31.8C59.523 14.2373 46.1984 0 29.7615 0ZM30.0654 15.9H30.0668C30.7725 15.9 32.1824 16.0056 33.6949 16.7126C34.564 17.1193 35.3456 17.6695 36.0184 18.3482C36.8206 19.1582 37.4738 20.1572 37.9603 21.3189C38.67 23.0149 38.501 25.8718 38.365 28.1673L38.3595 28.2644L38.3545 28.351C38.343 28.5468 38.332 28.7359 38.3218 28.9206C38.4141 28.9654 38.5565 29.0122 38.7595 29.0232C39.1413 29.0039 39.5861 28.8686 40.0826 28.6211C40.3145 28.5057 40.5595 28.4815 40.725 28.4815C40.968 28.4815 41.2067 28.5302 41.416 28.6224C42.0356 28.8586 42.4252 29.341 42.4351 29.8839C42.4391 30.1083 42.3756 30.4512 42.0494 30.8091C41.7764 31.1093 41.3625 31.3736 40.7834 31.6173C40.6497 31.6736 40.4892 31.7279 40.3189 31.7851C39.7306 31.984 38.8416 32.2847 38.61 32.866C38.4924 33.1614 38.5425 33.5491 38.7594 34.0184C38.7655 34.0309 38.7712 34.0438 38.7763 34.0568C38.8554 34.2542 40.7673 38.8999 45.0112 39.6451C45.3864 39.7107 45.6546 40.0674 45.6331 40.4712C45.6271 40.5902 45.6004 40.7071 45.5546 40.8199C45.4021 41.1962 45.051 41.5168 44.4808 41.7986C43.7823 42.1441 42.7382 42.4343 41.376 42.6621C41.3076 42.8022 41.2342 43.1589 41.1879 43.3839L41.1871 43.388C41.134 43.6472 41.0802 43.9031 41.0049 44.1756C40.8914 44.5896 40.5942 44.8261 40.1896 44.8261H40.171L40.1531 44.8258C39.9697 44.8258 39.7307 44.7948 39.4232 44.7302C38.952 44.6323 38.4242 44.5418 37.7576 44.5418C37.3706 44.5418 36.9698 44.5782 36.5664 44.6495C35.7891 44.7874 35.1194 45.2912 34.3436 45.8747L34.3429 45.8752L34.3411 45.877L34.3404 45.8775C33.2061 46.732 31.9211 47.7 29.9569 47.7C29.872 47.7 29.7916 47.6975 29.7267 47.6942C29.6736 47.6982 29.6199 47.7 29.5663 47.7C27.6023 47.7 26.3168 46.7319 25.1811 45.8766C24.4052 45.2922 23.7347 44.7875 22.9568 44.6495C22.5533 44.5781 22.1523 44.5418 21.7655 44.5418C21.0678 44.5418 20.5088 44.6584 20.1 44.7438L20.0904 44.7458C19.8153 44.8026 19.5774 44.8518 19.3701 44.8518C18.817 44.8518 18.6017 44.4914 18.5187 44.1898C18.4418 43.9114 18.3878 43.6493 18.3361 43.3945L18.3332 43.3806C18.2839 43.1413 18.2139 42.8017 18.1464 42.665C16.7851 42.4376 15.7406 42.1469 15.0422 41.8012C14.4707 41.5181 14.1191 41.1972 13.9675 40.8193L13.9664 40.8173C13.9219 40.7048 13.8963 40.5886 13.8899 40.472C13.869 40.0675 14.1367 39.7116 14.5117 39.646C15.4666 39.4784 16.378 39.0993 17.2203 38.5193C17.9104 38.0442 18.5598 37.4324 19.1493 36.7004C20.1868 35.4131 20.6926 34.1924 20.7468 34.0576C20.752 34.0444 20.7577 34.0319 20.7634 34.0191C20.9803 33.55 21.0309 33.1619 20.9134 32.8669C20.6816 32.2858 19.7936 31.9851 19.2058 31.786L19.2039 31.7854L19.2018 31.7847C19.0332 31.7277 18.874 31.6739 18.7398 31.6176C18.2262 31.4014 17.8284 31.1583 17.5576 30.8946C17.0652 30.4157 17.0631 29.9434 17.1057 29.7045C17.1704 29.3433 17.4085 29.0175 17.777 28.787C18.0698 28.6035 18.4075 28.5031 18.7278 28.5031C18.9271 28.5031 19.1078 28.5428 19.2661 28.6213C19.804 28.8899 20.2799 29.0262 20.68 29.0262C20.9287 29.0262 21.0975 28.9725 21.2016 28.9215C21.189 28.6956 21.1753 28.4643 21.1621 28.2405L21.1579 28.1693L21.1575 28.1657L21.1574 28.1649C21.0222 25.871 20.8539 23.0168 21.5632 21.3222C22.0476 20.1647 22.6985 19.1682 23.4976 18.36C24.1677 17.6817 24.9467 17.1314 25.8126 16.7244C27.3272 16.0122 28.7373 15.9061 29.442 15.9061L29.9877 15.9004C30.0122 15.9 30.038 15.9 30.0654 15.9Z" fill="black"/>
</svg>
