<svg width="61" height="64" viewBox="0 0 61 64" fill="none" xmlns="http://www.w3.org/2000/svg">
<path fill-rule="evenodd" clip-rule="evenodd" d="M30.6819 0.200012C14.2451 0.200012 0.92041 14.4374 0.92041 32C0.92041 49.5627 14.2451 63.8 30.6819 63.8C47.1188 63.8 60.4435 49.5627 60.4435 32C60.4435 14.4374 47.1188 0.200012 30.6819 0.200012ZM29.853 27.1478L29.7906 26.0474C29.6032 23.1955 31.2478 20.5906 33.85 19.5801C34.8076 19.2208 36.4314 19.1759 37.4931 19.4903C37.9094 19.625 38.7005 20.0741 39.2626 20.4783L40.2826 21.2194L41.4068 20.8376C42.0313 20.6355 42.864 20.2987 43.2387 20.0741C43.5926 19.872 43.9049 19.7597 43.9049 19.8271C43.9049 20.2088 43.1346 21.5113 42.4893 22.2299C41.615 23.2404 41.8648 23.3303 43.6343 22.6566C44.696 22.2748 44.7168 22.2748 44.5086 22.7015C44.3837 22.926 43.7384 23.712 43.0514 24.4306C41.8856 25.6657 41.8231 25.8004 41.8231 26.8334C41.8231 28.4278 41.1153 31.7513 40.4075 33.5703C39.096 36.9836 36.2857 40.5092 33.4753 42.2833C29.52 44.7759 24.2531 45.4047 19.819 43.945C18.3409 43.451 15.8012 42.1934 15.8012 41.9689C15.8012 41.9015 16.5714 41.8117 17.5082 41.7892C19.4651 41.7443 21.4219 41.1604 23.0873 40.1275L24.2115 39.4089L22.9208 38.9373C21.0888 38.2636 19.4442 36.7141 19.0279 35.2545C18.903 34.7829 18.9446 34.7604 20.1104 34.7604L21.3178 34.738L20.2978 34.2215C19.0903 33.5703 17.987 32.4699 17.4458 31.3471C17.0502 30.5387 16.5506 28.4952 16.6963 28.338C16.738 28.2706 17.1751 28.4053 17.6748 28.585C19.1112 29.1464 19.2985 29.0117 18.4658 28.0685C16.9045 26.3618 16.4257 23.8243 17.1751 21.4215L17.529 20.3436L18.903 21.8032C21.7134 24.745 25.0234 26.4966 28.8122 27.0131L29.853 27.1478Z" fill="black"/>
</svg>
