<svg width="1440" height="178" viewBox="0 0 1440 178" fill="none" xmlns="http://www.w3.org/2000/svg">
<g filter="url(#filter0_i_263_4334)">
<path fill-rule="evenodd" clip-rule="evenodd" d="M0 135.778L60 120.705C120 105.631 240 75.4844 360 79.2528C480 83.0211 600 120.705 720 120.705C840 120.705 960 83.0211 1080 56.6427C1200 30.2643 1320 15.1909 1380 7.65424L1440 0.117554V180.998H1380C1320 180.998 1200 180.998 1080 180.998C960 180.998 840 180.998 720 180.998C600 180.998 480 180.998 360 180.998C240 180.998 120 180.998 60 180.998H0V135.778Z" fill="#FDC435"/>
</g>
<defs>
<filter id="filter0_i_263_4334" x="0" y="0.117554" width="1445" height="184.88" filterUnits="userSpaceOnUse" color-interpolation-filters="sRGB">
<feFlood flood-opacity="0" result="BackgroundImageFix"/>
<feBlend mode="normal" in="SourceGraphic" in2="BackgroundImageFix" result="shape"/>
<feColorMatrix in="SourceAlpha" type="matrix" values="0 0 0 0 0 0 0 0 0 0 0 0 0 0 0 0 0 0 127 0" result="hardAlpha"/>
<feOffset dx="10" dy="4"/>
<feGaussianBlur stdDeviation="2.5"/>
<feComposite in2="hardAlpha" operator="arithmetic" k2="-1" k3="1"/>
<feColorMatrix type="matrix" values="0 0 0 0 0 0 0 0 0 0 0 0 0 0 0 0 0 0 0.25 0"/>
<feBlend mode="normal" in2="shape" result="effect1_innerShadow_263_4334"/>
</filter>
</defs>
</svg>
