<svg width="696" height="755" viewBox="0 0 696 755" fill="none" xmlns="http://www.w3.org/2000/svg">
<g filter="url(#filter0_d_263_4335)">
<path fill-rule="evenodd" clip-rule="evenodd" d="M614.013 -171.817C724.352 -142.804 833.491 -79.359 884.821 14.5869C932.282 101.45 868.16 196.273 866.973 291.156C866.019 367.438 906.25 444.011 878.564 514.834C847.891 593.297 788.361 661.612 707.223 699.805C622.245 739.806 515.384 765.727 424.568 728.538C336.546 692.493 330.44 579.962 261.91 517.449C186.928 449.051 32.1596 444.063 10.8562 351.155C-10.0131 260.14 130.532 214.642 173.849 133.401C221.831 43.408 188.503 -85.1109 275.705 -145.579C366.049 -208.225 500.549 -201.652 614.013 -171.817Z" fill="#FDC435"/>
</g>
<defs>
<filter id="filter0_d_263_4335" x="0.756836" y="-193.778" width="901.54" height="948.289" filterUnits="userSpaceOnUse" color-interpolation-filters="sRGB">
<feFlood flood-opacity="0" result="BackgroundImageFix"/>
<feColorMatrix in="SourceAlpha" type="matrix" values="0 0 0 0 0 0 0 0 0 0 0 0 0 0 0 0 0 0 127 0" result="hardAlpha"/>
<feOffset dx="-4" dy="4"/>
<feGaussianBlur stdDeviation="2"/>
<feComposite in2="hardAlpha" operator="out"/>
<feColorMatrix type="matrix" values="0 0 0 0 0 0 0 0 0 0 0 0 0 0 0 0 0 0 0.25 0"/>
<feBlend mode="normal" in2="BackgroundImageFix" result="effect1_dropShadow_263_4335"/>
<feBlend mode="normal" in="SourceGraphic" in2="effect1_dropShadow_263_4335" result="shape"/>
</filter>
</defs>
</svg>
